<svg xmlns="http://www.w3.org/2000/svg" xmlns:xlink="http://www.w3.org/1999/xlink" id="Layer_1" x="0px" y="0px" viewBox="0 0 190 57.59" style="enable-background:new 0 0 190 57.59;" xml:space="preserve"><style type="text/css">	.st0{fill:#2C9342;}	.st1{fill:#DC5200;}	.st2{fill:#FF7E0B;}	.st3{fill:#006FBB;}	.st4{fill:#FF1212;}	.st5{fill:#FFFFFF;}</style><g>	<g>		<path class="st0" d="M66.6,34.24h-2.9V29.2h-4.29v5.04H56.5V22.16h2.91v4.8h4.29v-4.8h2.9V34.24z"></path>		<path class="st0" d="M78.67,28.45c0,1.18-0.22,2.22-0.66,3.13c-0.44,0.91-1.06,1.61-1.86,2.1c-0.8,0.49-1.72,0.73-2.75,0.73   c-1.03,0-1.94-0.24-2.74-0.71c-0.8-0.47-1.42-1.15-1.86-2.03c-0.45-0.88-0.68-1.89-0.7-3.03v-0.68c0-1.18,0.22-2.23,0.65-3.13   c0.43-0.9,1.06-1.6,1.87-2.09c0.81-0.49,1.73-0.74,2.77-0.74c1.02,0,1.94,0.24,2.74,0.73c0.8,0.49,1.43,1.18,1.87,2.08   c0.45,0.9,0.67,1.93,0.68,3.09V28.45z M75.71,27.94c0-1.2-0.2-2.11-0.6-2.73c-0.4-0.62-0.97-0.93-1.72-0.93   c-1.46,0-2.23,1.1-2.31,3.29l-0.01,0.89c0,1.18,0.2,2.09,0.59,2.73c0.39,0.64,0.98,0.95,1.75,0.95c0.74,0,1.3-0.31,1.7-0.94   c0.4-0.63,0.6-1.52,0.61-2.7V27.94z"></path>		<path class="st0" d="M89.65,22.16v7.91c0,0.9-0.19,1.67-0.57,2.33c-0.38,0.66-0.93,1.15-1.64,1.5c-0.71,0.34-1.56,0.51-2.53,0.51   c-1.47,0-2.63-0.38-3.48-1.15c-0.85-0.76-1.28-1.81-1.29-3.14v-7.97h2.93v8.02c0.03,1.32,0.65,1.98,1.84,1.98   c0.6,0,1.06-0.17,1.37-0.5c0.31-0.33,0.46-0.87,0.46-1.62v-7.89H89.65z"></path>		<path class="st0" d="M97.7,31.03c0-0.43-0.15-0.76-0.45-1c-0.3-0.24-0.83-0.48-1.59-0.74c-0.76-0.25-1.38-0.5-1.86-0.74   c-1.57-0.77-2.35-1.83-2.35-3.17c0-0.67,0.19-1.26,0.58-1.77c0.39-0.51,0.94-0.91,1.66-1.19C94.41,22.14,95.21,22,96.1,22   c0.87,0,1.65,0.15,2.34,0.46c0.69,0.31,1.22,0.75,1.61,1.32c0.38,0.57,0.57,1.23,0.57,1.96h-2.9c0-0.49-0.15-0.87-0.45-1.15   c-0.3-0.27-0.71-0.41-1.22-0.41c-0.52,0-0.93,0.11-1.23,0.34c-0.3,0.23-0.45,0.52-0.45,0.88c0,0.31,0.17,0.59,0.5,0.84   c0.33,0.25,0.92,0.51,1.75,0.78c0.84,0.27,1.52,0.56,2.06,0.87c1.31,0.75,1.96,1.79,1.96,3.11c0,1.06-0.4,1.89-1.19,2.49   c-0.8,0.6-1.89,0.9-3.28,0.9c-0.98,0-1.87-0.18-2.66-0.53c-0.79-0.35-1.39-0.83-1.79-1.44c-0.4-0.61-0.6-1.32-0.6-2.11h2.92   c0,0.65,0.17,1.12,0.5,1.43c0.33,0.31,0.88,0.46,1.63,0.46c0.48,0,0.86-0.1,1.14-0.31C97.56,31.7,97.7,31.41,97.7,31.03z"></path>		<path class="st0" d="M109.6,29.11h-4.58V32h5.41v2.24h-8.32V22.16h8.34v2.25h-5.43v2.55h4.58V29.11z"></path>		<path class="st0" d="M126.08,28.45c0,1.18-0.22,2.22-0.66,3.13c-0.44,0.91-1.06,1.61-1.86,2.1c-0.8,0.49-1.72,0.73-2.75,0.73   c-1.03,0-1.94-0.24-2.74-0.71c-0.8-0.47-1.42-1.15-1.86-2.03c-0.45-0.88-0.68-1.89-0.7-3.03v-0.68c0-1.18,0.22-2.23,0.65-3.13   c0.43-0.9,1.06-1.6,1.87-2.09c0.81-0.49,1.73-0.74,2.77-0.74c1.02,0,1.94,0.24,2.74,0.73c0.8,0.49,1.43,1.18,1.87,2.08   c0.45,0.9,0.67,1.93,0.68,3.09V28.45z M123.11,27.94c0-1.2-0.2-2.11-0.6-2.73c-0.4-0.62-0.97-0.93-1.72-0.93   c-1.46,0-2.23,1.1-2.31,3.29l-0.01,0.89c0,1.18,0.2,2.09,0.59,2.73c0.39,0.64,0.98,0.95,1.75,0.95c0.74,0,1.3-0.31,1.7-0.94   s0.6-1.52,0.61-2.7V27.94z"></path>		<path class="st0" d="M135.19,29.43h-4.7v4.81h-2.91V22.16h8.08v2.25h-5.17v2.78h4.7V29.43z"></path>		<path class="st0" d="M59.42,46.69v4.1H56.5V38.71h4.82c0.92,0,1.74,0.17,2.45,0.51c0.71,0.34,1.26,0.82,1.65,1.45   c0.39,0.63,0.58,1.34,0.58,2.14c0,1.18-0.42,2.12-1.27,2.83c-0.84,0.71-2,1.06-3.47,1.06H59.42z M59.42,44.44h1.91   c0.56,0,0.99-0.14,1.29-0.42c0.3-0.28,0.44-0.68,0.44-1.19c0-0.56-0.15-1.01-0.46-1.35c-0.3-0.34-0.72-0.51-1.24-0.51h-1.94V44.44   z"></path>		<path class="st0" d="M72.05,46.52h-1.58v4.27h-2.91V38.71h4.75c1.43,0,2.55,0.32,3.36,0.95c0.81,0.64,1.21,1.53,1.21,2.69   c0,0.84-0.17,1.54-0.51,2.09c-0.34,0.55-0.87,1-1.6,1.34l2.52,4.88v0.12h-3.12L72.05,46.52z M70.48,44.28h1.84   c0.55,0,0.97-0.15,1.25-0.44c0.28-0.29,0.42-0.7,0.42-1.22c0-0.52-0.14-0.93-0.42-1.23c-0.28-0.3-0.7-0.45-1.24-0.45h-1.84V44.28z   "></path>		<path class="st0" d="M88.88,45c0,1.18-0.22,2.22-0.66,3.13c-0.44,0.91-1.06,1.61-1.86,2.1c-0.8,0.49-1.72,0.73-2.75,0.73   c-1.03,0-1.94-0.24-2.74-0.71c-0.8-0.47-1.42-1.15-1.86-2.03c-0.45-0.88-0.68-1.89-0.7-3.03v-0.68c0-1.18,0.22-2.23,0.65-3.13   c0.43-0.9,1.06-1.6,1.87-2.1c0.81-0.49,1.73-0.74,2.77-0.74c1.02,0,1.94,0.24,2.74,0.73c0.8,0.49,1.43,1.18,1.87,2.08   c0.45,0.9,0.67,1.93,0.68,3.09V45z M85.92,44.49c0-1.2-0.2-2.11-0.6-2.73c-0.4-0.62-0.97-0.93-1.72-0.93   c-1.46,0-2.23,1.1-2.31,3.29L81.27,45c0,1.18,0.2,2.09,0.59,2.73c0.39,0.64,0.98,0.95,1.75,0.95c0.74,0,1.3-0.31,1.7-0.94   c0.4-0.63,0.6-1.52,0.61-2.7V44.49z"></path>		<path class="st0" d="M97.99,45.98h-4.7v4.81h-2.91V38.71h8.08v2.25h-5.17v2.78h4.7V45.98z"></path>		<path class="st0" d="M107.17,45.66h-4.58v2.89H108v2.24h-8.32V38.71h8.34v2.25h-5.43v2.55h4.58V45.66z"></path>		<path class="st0" d="M115.41,47.58c0-0.43-0.15-0.76-0.45-1c-0.3-0.24-0.83-0.48-1.59-0.74c-0.76-0.25-1.38-0.5-1.86-0.74   c-1.57-0.77-2.35-1.83-2.35-3.17c0-0.67,0.2-1.26,0.59-1.77c0.39-0.51,0.94-0.91,1.66-1.19c0.71-0.28,1.52-0.43,2.41-0.43   c0.87,0,1.65,0.15,2.34,0.46c0.69,0.31,1.22,0.75,1.61,1.32c0.38,0.57,0.57,1.23,0.57,1.96h-2.9c0-0.49-0.15-0.87-0.45-1.15   c-0.3-0.27-0.71-0.41-1.22-0.41c-0.52,0-0.93,0.11-1.23,0.34c-0.3,0.23-0.45,0.52-0.45,0.88c0,0.31,0.17,0.59,0.5,0.84   c0.33,0.25,0.92,0.51,1.75,0.78c0.83,0.27,1.52,0.56,2.06,0.87c1.31,0.75,1.96,1.79,1.96,3.11c0,1.06-0.4,1.89-1.19,2.49   c-0.8,0.6-1.89,0.9-3.28,0.9c-0.98,0-1.87-0.18-2.66-0.53c-0.79-0.35-1.39-0.83-1.79-1.44c-0.4-0.61-0.6-1.32-0.6-2.11h2.92   c0,0.65,0.17,1.12,0.5,1.43c0.33,0.31,0.88,0.46,1.63,0.46c0.48,0,0.86-0.1,1.14-0.31C115.27,48.25,115.41,47.96,115.41,47.58z"></path>		<path class="st0" d="M126.05,47.58c0-0.43-0.15-0.76-0.45-1c-0.3-0.24-0.83-0.48-1.59-0.74c-0.76-0.25-1.38-0.5-1.86-0.74   c-1.57-0.77-2.35-1.83-2.35-3.17c0-0.67,0.2-1.26,0.59-1.77c0.39-0.51,0.94-0.91,1.66-1.19c0.71-0.28,1.52-0.43,2.41-0.43   c0.87,0,1.65,0.15,2.34,0.46c0.69,0.31,1.22,0.75,1.61,1.32c0.38,0.57,0.57,1.23,0.57,1.96h-2.9c0-0.49-0.15-0.87-0.45-1.15   c-0.3-0.27-0.71-0.41-1.22-0.41c-0.52,0-0.93,0.11-1.23,0.34c-0.3,0.23-0.45,0.52-0.45,0.88c0,0.31,0.17,0.59,0.5,0.84   c0.33,0.25,0.92,0.51,1.75,0.78c0.83,0.27,1.52,0.56,2.06,0.87c1.31,0.75,1.96,1.79,1.96,3.11c0,1.06-0.4,1.89-1.19,2.49   c-0.8,0.6-1.89,0.9-3.28,0.9c-0.98,0-1.87-0.18-2.66-0.53c-0.79-0.35-1.39-0.83-1.79-1.44c-0.4-0.61-0.6-1.32-0.6-2.11h2.92   c0,0.65,0.17,1.12,0.5,1.43c0.33,0.31,0.88,0.46,1.63,0.46c0.48,0,0.86-0.1,1.14-0.31C125.91,48.25,126.05,47.96,126.05,47.58z"></path>		<path class="st0" d="M133.56,50.79h-2.9V38.71h2.9V50.79z"></path>		<path class="st0" d="M145.81,45c0,1.18-0.22,2.22-0.66,3.13c-0.44,0.91-1.06,1.61-1.86,2.1c-0.8,0.49-1.72,0.73-2.75,0.73   s-1.94-0.24-2.74-0.71c-0.8-0.47-1.42-1.15-1.86-2.03c-0.45-0.88-0.68-1.89-0.7-3.03v-0.68c0-1.18,0.22-2.23,0.65-3.13   c0.43-0.9,1.06-1.6,1.87-2.1c0.81-0.49,1.73-0.74,2.77-0.74c1.02,0,1.94,0.24,2.74,0.73c0.8,0.49,1.43,1.18,1.87,2.08   c0.45,0.9,0.67,1.93,0.68,3.09V45z M142.85,44.49c0-1.2-0.2-2.11-0.6-2.73s-0.97-0.93-1.72-0.93c-1.46,0-2.23,1.1-2.31,3.29   L138.21,45c0,1.18,0.2,2.09,0.59,2.73c0.39,0.64,0.98,0.95,1.75,0.95c0.74,0,1.3-0.31,1.7-0.94c0.4-0.63,0.6-1.52,0.61-2.7V44.49z   "></path>		<path class="st0" d="M157.41,50.79h-2.9l-4.28-7.52v7.52h-2.91V38.71h2.91l4.27,7.52v-7.52h2.9V50.79z"></path>		<path class="st0" d="M166.26,48.53h-3.99l-0.7,2.26h-3.11l4.43-12.08h2.74l4.46,12.08h-3.13L166.26,48.53z M162.96,46.28h2.6   l-1.3-4.19L162.96,46.28z"></path>		<path class="st0" d="M173.88,48.55h5.07v2.24h-7.98V38.71h2.91V48.55z"></path>		<path class="st0" d="M186.41,47.58c0-0.43-0.15-0.76-0.45-1c-0.3-0.24-0.83-0.48-1.59-0.74c-0.76-0.25-1.38-0.5-1.86-0.74   c-1.57-0.77-2.35-1.83-2.35-3.17c0-0.67,0.2-1.26,0.59-1.77c0.39-0.51,0.94-0.91,1.66-1.19c0.71-0.28,1.52-0.43,2.41-0.43   c0.87,0,1.65,0.15,2.34,0.46c0.69,0.31,1.22,0.75,1.61,1.32c0.38,0.57,0.57,1.23,0.57,1.96h-2.9c0-0.49-0.15-0.87-0.45-1.15   c-0.3-0.27-0.71-0.41-1.22-0.41c-0.52,0-0.93,0.11-1.23,0.34c-0.3,0.23-0.45,0.52-0.45,0.88c0,0.31,0.17,0.59,0.5,0.84   c0.33,0.25,0.92,0.51,1.75,0.78c0.83,0.27,1.52,0.56,2.06,0.87c1.31,0.75,1.96,1.79,1.96,3.11c0,1.06-0.4,1.89-1.19,2.49   c-0.8,0.6-1.89,0.9-3.28,0.9c-0.98,0-1.87-0.18-2.66-0.53c-0.79-0.35-1.39-0.83-1.79-1.44c-0.4-0.61-0.6-1.32-0.6-2.11h2.92   c0,0.65,0.17,1.12,0.5,1.43c0.33,0.31,0.88,0.46,1.63,0.46c0.48,0,0.86-0.1,1.14-0.31C186.27,48.25,186.41,47.96,186.41,47.58z"></path>	</g>	<g>		<path class="st1" d="M133.35,54.85c0,0.47-0.11,0.84-0.34,1.13c-0.22,0.29-0.53,0.43-0.91,0.43c-0.39,0-0.7-0.12-0.92-0.35v1.48   h-0.55v-4.25h0.5l0.03,0.34c0.22-0.26,0.54-0.4,0.94-0.4c0.39,0,0.69,0.14,0.92,0.42c0.23,0.28,0.34,0.66,0.34,1.16V54.85z    M132.79,54.79c0-0.35-0.08-0.62-0.23-0.82c-0.15-0.2-0.37-0.3-0.64-0.3c-0.33,0-0.58,0.14-0.75,0.42v1.47   c0.16,0.28,0.42,0.42,0.76,0.42c0.26,0,0.47-0.1,0.63-0.3C132.72,55.48,132.79,55.19,132.79,54.79z"></path>		<path class="st1" d="M136.04,56.35c-0.03-0.06-0.06-0.17-0.08-0.32c-0.26,0.25-0.56,0.38-0.92,0.38c-0.32,0-0.58-0.09-0.78-0.26   c-0.2-0.17-0.31-0.39-0.31-0.65c0-0.32,0.13-0.57,0.38-0.74c0.26-0.18,0.62-0.27,1.08-0.27h0.54v-0.24c0-0.18-0.06-0.33-0.17-0.44   c-0.12-0.11-0.29-0.16-0.51-0.16c-0.2,0-0.36,0.05-0.5,0.14c-0.13,0.09-0.2,0.21-0.2,0.34h-0.56c0-0.15,0.06-0.3,0.17-0.44   c0.11-0.14,0.27-0.26,0.47-0.34c0.2-0.08,0.41-0.12,0.65-0.12c0.37,0,0.66,0.09,0.87,0.27c0.21,0.18,0.32,0.42,0.33,0.73v1.41   c0,0.28,0.04,0.51,0.11,0.67v0.05H136.04z M135.12,55.95c0.17,0,0.34-0.04,0.49-0.13c0.15-0.08,0.27-0.2,0.34-0.33v-0.63h-0.43   c-0.68,0-1.01,0.19-1.01,0.56c0,0.16,0.06,0.29,0.17,0.39C134.8,55.91,134.94,55.95,135.12,55.95z"></path>		<path class="st1" d="M139.25,55.54c0-0.14-0.06-0.25-0.17-0.33c-0.11-0.08-0.31-0.15-0.59-0.2c-0.28-0.06-0.5-0.12-0.67-0.2   c-0.16-0.08-0.29-0.17-0.36-0.28c-0.08-0.11-0.12-0.24-0.12-0.39c0-0.25,0.11-0.46,0.34-0.64c0.22-0.17,0.51-0.26,0.86-0.26   c0.37,0,0.66,0.09,0.89,0.27c0.23,0.18,0.34,0.41,0.34,0.69h-0.56c0-0.14-0.06-0.27-0.19-0.37s-0.29-0.16-0.48-0.16   c-0.2,0-0.36,0.04-0.47,0.12c-0.11,0.08-0.17,0.19-0.17,0.33c0,0.13,0.05,0.22,0.16,0.29c0.11,0.06,0.3,0.13,0.57,0.18   c0.28,0.06,0.5,0.13,0.67,0.21c0.17,0.08,0.3,0.18,0.38,0.29c0.08,0.11,0.12,0.25,0.12,0.42c0,0.27-0.12,0.49-0.35,0.66   c-0.23,0.17-0.53,0.25-0.9,0.25c-0.26,0-0.49-0.04-0.69-0.13c-0.2-0.09-0.35-0.21-0.47-0.36c-0.11-0.16-0.17-0.32-0.17-0.51h0.55   c0.01,0.18,0.08,0.32,0.22,0.42c0.14,0.1,0.32,0.15,0.55,0.15c0.21,0,0.38-0.04,0.5-0.12C139.19,55.78,139.25,55.67,139.25,55.54z   "></path>		<path class="st1" d="M142.4,55.54c0-0.14-0.06-0.25-0.17-0.33c-0.11-0.08-0.31-0.15-0.59-0.2c-0.28-0.06-0.5-0.12-0.67-0.2   c-0.16-0.08-0.29-0.17-0.36-0.28c-0.08-0.11-0.12-0.24-0.12-0.39c0-0.25,0.11-0.46,0.34-0.64c0.22-0.17,0.51-0.26,0.86-0.26   c0.37,0,0.66,0.09,0.89,0.27c0.23,0.18,0.34,0.41,0.34,0.69h-0.56c0-0.14-0.06-0.27-0.19-0.37s-0.29-0.16-0.48-0.16   c-0.2,0-0.36,0.04-0.47,0.12c-0.11,0.08-0.17,0.19-0.17,0.33c0,0.13,0.05,0.22,0.16,0.29c0.11,0.06,0.3,0.13,0.57,0.18   c0.28,0.06,0.5,0.13,0.67,0.21c0.17,0.08,0.3,0.18,0.38,0.29c0.08,0.11,0.12,0.25,0.12,0.42c0,0.27-0.12,0.49-0.35,0.66   c-0.23,0.17-0.53,0.25-0.9,0.25c-0.26,0-0.49-0.04-0.69-0.13c-0.2-0.09-0.35-0.21-0.47-0.36c-0.11-0.16-0.17-0.32-0.17-0.51h0.55   c0.01,0.18,0.08,0.32,0.22,0.42c0.14,0.1,0.32,0.15,0.55,0.15c0.21,0,0.38-0.04,0.5-0.12C142.34,55.78,142.4,55.67,142.4,55.54z"></path>		<path class="st1" d="M146.4,54.85c0,0.47-0.11,0.84-0.34,1.13c-0.22,0.29-0.53,0.43-0.91,0.43c-0.39,0-0.7-0.12-0.92-0.35v1.48   h-0.55v-4.25h0.5l0.03,0.34c0.22-0.26,0.54-0.4,0.94-0.4c0.39,0,0.69,0.14,0.92,0.42c0.23,0.28,0.34,0.66,0.34,1.16V54.85z    M145.85,54.79c0-0.35-0.08-0.62-0.23-0.82c-0.15-0.2-0.37-0.3-0.64-0.3c-0.33,0-0.58,0.14-0.75,0.42v1.47   c0.16,0.28,0.42,0.42,0.76,0.42c0.26,0,0.47-0.1,0.63-0.3C145.77,55.48,145.85,55.19,145.85,54.79z"></path>		<path class="st1" d="M146.95,54.79c0-0.3,0.06-0.57,0.19-0.81c0.12-0.24,0.3-0.43,0.52-0.56c0.22-0.13,0.47-0.2,0.76-0.2   c0.44,0,0.8,0.14,1.07,0.43c0.27,0.29,0.41,0.67,0.41,1.15v0.04c0,0.3-0.06,0.57-0.18,0.8s-0.29,0.42-0.52,0.55   c-0.22,0.13-0.48,0.2-0.77,0.2c-0.44,0-0.79-0.14-1.06-0.43c-0.27-0.29-0.41-0.67-0.41-1.15V54.79z M147.51,54.85   c0,0.34,0.08,0.61,0.25,0.82c0.17,0.21,0.39,0.31,0.67,0.31c0.28,0,0.5-0.1,0.67-0.31c0.16-0.21,0.25-0.5,0.25-0.88   c0-0.34-0.08-0.61-0.25-0.82c-0.17-0.21-0.39-0.31-0.67-0.31c-0.27,0-0.49,0.1-0.66,0.31C147.59,54.17,147.51,54.47,147.51,54.85z   "></path>		<path class="st1" d="M152.15,53.76c-0.08-0.01-0.17-0.02-0.27-0.02c-0.36,0-0.61,0.15-0.74,0.44v2.18h-0.55v-3.07h0.54l0.01,0.35   c0.18-0.27,0.44-0.41,0.77-0.41c0.11,0,0.19,0.01,0.24,0.04V53.76z"></path>		<path class="st1" d="M153.55,52.54v0.74h0.6v0.41h-0.6v1.9c0,0.12,0.03,0.22,0.08,0.28c0.05,0.06,0.15,0.09,0.27,0.09   c0.06,0,0.15-0.01,0.26-0.03v0.42c-0.15,0.04-0.29,0.06-0.42,0.06c-0.25,0-0.43-0.07-0.56-0.21c-0.13-0.14-0.19-0.34-0.19-0.6   v-1.9h-0.59v-0.41H153v-0.74H153.55z"></path>		<path class="st1" d="M157.06,52.54v0.74h0.6v0.41h-0.6v1.9c0,0.12,0.03,0.22,0.08,0.28c0.05,0.06,0.15,0.09,0.27,0.09   c0.06,0,0.15-0.01,0.26-0.03v0.42c-0.15,0.04-0.29,0.06-0.42,0.06c-0.25,0-0.43-0.07-0.56-0.21c-0.13-0.14-0.19-0.34-0.19-0.6   v-1.9h-0.59v-0.41h0.59v-0.74H157.06z"></path>		<path class="st1" d="M158.1,54.79c0-0.3,0.06-0.57,0.19-0.81c0.12-0.24,0.3-0.43,0.52-0.56c0.22-0.13,0.47-0.2,0.76-0.2   c0.44,0,0.8,0.14,1.07,0.43c0.27,0.29,0.41,0.67,0.41,1.15v0.04c0,0.3-0.06,0.57-0.18,0.8s-0.29,0.42-0.52,0.55   c-0.22,0.13-0.48,0.2-0.77,0.2c-0.44,0-0.79-0.14-1.06-0.43c-0.27-0.29-0.41-0.67-0.41-1.15V54.79z M158.66,54.85   c0,0.34,0.08,0.61,0.25,0.82c0.17,0.21,0.39,0.31,0.67,0.31c0.28,0,0.5-0.1,0.67-0.31c0.16-0.21,0.25-0.5,0.25-0.88   c0-0.34-0.08-0.61-0.25-0.82c-0.17-0.21-0.39-0.31-0.67-0.31c-0.27,0-0.49,0.1-0.66,0.31C158.74,54.17,158.66,54.47,158.66,54.85z   "></path>		<path class="st1" d="M165.97,54.85c0,0.47-0.11,0.84-0.34,1.13c-0.22,0.29-0.53,0.43-0.91,0.43c-0.39,0-0.7-0.12-0.92-0.35v1.48   h-0.55v-4.25h0.5l0.03,0.34c0.22-0.26,0.54-0.4,0.94-0.4c0.39,0,0.69,0.14,0.92,0.42c0.23,0.28,0.34,0.66,0.34,1.16V54.85z    M165.42,54.79c0-0.35-0.08-0.62-0.23-0.82c-0.15-0.2-0.37-0.3-0.64-0.3c-0.33,0-0.58,0.14-0.75,0.42v1.47   c0.16,0.28,0.42,0.42,0.76,0.42c0.26,0,0.47-0.1,0.63-0.3C165.34,55.48,165.42,55.19,165.42,54.79z"></path>		<path class="st1" d="M168.23,53.76c-0.08-0.01-0.17-0.02-0.27-0.02c-0.36,0-0.61,0.15-0.74,0.44v2.18h-0.55v-3.07h0.54l0.01,0.35   c0.18-0.27,0.44-0.41,0.77-0.41c0.11,0,0.19,0.01,0.24,0.04V53.76z"></path>		<path class="st1" d="M168.53,54.79c0-0.3,0.06-0.57,0.19-0.81c0.12-0.24,0.3-0.43,0.52-0.56c0.22-0.13,0.47-0.2,0.76-0.2   c0.44,0,0.8,0.14,1.07,0.43c0.27,0.29,0.41,0.67,0.41,1.15v0.04c0,0.3-0.06,0.57-0.18,0.8s-0.29,0.42-0.52,0.55   c-0.22,0.13-0.48,0.2-0.77,0.2c-0.44,0-0.79-0.14-1.06-0.43c-0.27-0.29-0.41-0.67-0.41-1.15V54.79z M169.09,54.85   c0,0.34,0.08,0.61,0.25,0.82c0.17,0.21,0.39,0.31,0.67,0.31c0.28,0,0.5-0.1,0.67-0.31c0.16-0.21,0.25-0.5,0.25-0.88   c0-0.34-0.08-0.61-0.25-0.82c-0.17-0.21-0.39-0.31-0.67-0.31c-0.27,0-0.49,0.1-0.66,0.31C169.17,54.17,169.09,54.47,169.09,54.85z   "></path>		<path class="st1" d="M174.04,55.54c0-0.14-0.06-0.25-0.17-0.33c-0.11-0.08-0.31-0.15-0.59-0.2c-0.28-0.06-0.5-0.12-0.67-0.2   c-0.16-0.08-0.29-0.17-0.36-0.28c-0.08-0.11-0.12-0.24-0.12-0.39c0-0.25,0.11-0.46,0.34-0.64c0.22-0.17,0.51-0.26,0.86-0.26   c0.37,0,0.66,0.09,0.89,0.27c0.23,0.18,0.34,0.41,0.34,0.69h-0.56c0-0.14-0.06-0.27-0.19-0.37s-0.29-0.16-0.48-0.16   c-0.2,0-0.36,0.04-0.47,0.12c-0.11,0.08-0.17,0.19-0.17,0.33c0,0.13,0.05,0.22,0.16,0.29c0.11,0.06,0.3,0.13,0.57,0.18   c0.28,0.06,0.5,0.13,0.67,0.21c0.17,0.08,0.3,0.18,0.38,0.29c0.08,0.11,0.12,0.25,0.12,0.42c0,0.27-0.12,0.49-0.35,0.66   c-0.23,0.17-0.53,0.25-0.9,0.25c-0.26,0-0.49-0.04-0.69-0.13c-0.2-0.09-0.35-0.21-0.47-0.36c-0.11-0.16-0.17-0.32-0.17-0.51h0.55   c0.01,0.18,0.08,0.32,0.22,0.42c0.14,0.1,0.32,0.15,0.55,0.15c0.21,0,0.38-0.04,0.5-0.12C173.98,55.78,174.04,55.67,174.04,55.54z   "></path>		<path class="st1" d="M178.04,54.85c0,0.47-0.11,0.84-0.34,1.13c-0.22,0.29-0.53,0.43-0.91,0.43c-0.39,0-0.7-0.12-0.92-0.35v1.48   h-0.55v-4.25h0.5l0.03,0.34c0.22-0.26,0.54-0.4,0.94-0.4c0.39,0,0.69,0.14,0.92,0.42c0.23,0.28,0.34,0.66,0.34,1.16V54.85z    M177.49,54.79c0-0.35-0.08-0.62-0.23-0.82c-0.15-0.2-0.37-0.3-0.64-0.3c-0.33,0-0.58,0.14-0.75,0.42v1.47   c0.16,0.28,0.42,0.42,0.76,0.42c0.26,0,0.47-0.1,0.63-0.3C177.41,55.48,177.49,55.19,177.49,54.79z"></path>		<path class="st1" d="M180.08,56.41c-0.44,0-0.79-0.14-1.07-0.41s-0.41-0.64-0.41-1.1v-0.1c0-0.3,0.06-0.58,0.18-0.81   c0.12-0.24,0.29-0.43,0.51-0.56c0.22-0.13,0.46-0.2,0.71-0.2c0.42,0,0.75,0.13,0.98,0.39c0.23,0.26,0.35,0.64,0.35,1.13v0.22   h-2.19c0.01,0.3,0.1,0.55,0.28,0.73c0.18,0.19,0.4,0.28,0.68,0.28c0.19,0,0.36-0.04,0.5-0.11c0.14-0.08,0.25-0.18,0.36-0.3   l0.34,0.25C181.03,56.21,180.62,56.41,180.08,56.41z M180.01,53.66c-0.22,0-0.41,0.08-0.56,0.23c-0.15,0.15-0.24,0.37-0.28,0.65   h1.62V54.5c-0.02-0.27-0.09-0.47-0.23-0.62C180.43,53.73,180.24,53.66,180.01,53.66z"></path>		<path class="st1" d="M183.54,53.76c-0.08-0.01-0.17-0.02-0.27-0.02c-0.36,0-0.61,0.15-0.74,0.44v2.18h-0.55v-3.07h0.54l0.01,0.35   c0.18-0.27,0.44-0.41,0.77-0.41c0.11,0,0.19,0.01,0.24,0.04V53.76z"></path>		<path class="st1" d="M184.05,52.47c0-0.08,0.03-0.16,0.08-0.22c0.05-0.06,0.14-0.09,0.24-0.09c0.11,0,0.19,0.03,0.24,0.09   c0.06,0.06,0.08,0.13,0.08,0.22c0,0.08-0.03,0.16-0.08,0.21c-0.06,0.06-0.14,0.09-0.24,0.09c-0.11,0-0.19-0.03-0.24-0.09   C184.08,52.63,184.05,52.56,184.05,52.47z M184.65,56.35h-0.55v-3.07h0.55V56.35z"></path>		<path class="st1" d="M186.28,52.54v0.74h0.6v0.41h-0.6v1.9c0,0.12,0.03,0.22,0.08,0.28c0.05,0.06,0.15,0.09,0.27,0.09   c0.06,0,0.15-0.01,0.26-0.03v0.42c-0.15,0.04-0.29,0.06-0.42,0.06c-0.25,0-0.43-0.07-0.56-0.21c-0.13-0.14-0.19-0.34-0.19-0.6   v-1.9h-0.59v-0.41h0.59v-0.74H186.28z"></path>		<path class="st1" d="M188.58,55.58l0.75-2.3h0.59l-1.3,3.54c-0.2,0.51-0.52,0.77-0.96,0.77l-0.1-0.01l-0.21-0.04v-0.43l0.15,0.01   c0.19,0,0.33-0.04,0.44-0.11c0.1-0.07,0.19-0.2,0.26-0.39l0.12-0.31l-1.15-3.03h0.6L188.58,55.58z"></path>	</g>	<g>		<rect x="130.38" y="51.53" class="st1" width="59.62" height="0.26"></rect>	</g>	<g>		<g>			<path class="st0" d="M0,50.71c0-4.19,0-7.95,0-12.44c16.76,0,33.51,0,50.39,0c0,4.01,0,7.94,0,12.44    C33.59,50.71,16.84,50.71,0,50.71z"></path>		</g>		<g>			<g>				<path class="st2" d="M25.34,29.35v1.02h0.77v-1.2h0.35v1.63h-2.49v-1.62h0.35v1.19H25v-1.02H25.34z"></path>			</g>			<g>				<path class="st2" d="M25.64,26.92c0.27,0.02,0.47,0.12,0.62,0.29c0.15,0.17,0.22,0.4,0.22,0.68c0,0.2-0.05,0.37-0.14,0.52     c-0.09,0.15-0.23,0.27-0.4,0.35c-0.17,0.08-0.38,0.13-0.6,0.13h-0.23c-0.24,0-0.44-0.04-0.62-0.13     c-0.18-0.08-0.32-0.2-0.41-0.36c-0.1-0.16-0.15-0.34-0.15-0.54c0-0.27,0.07-0.5,0.22-0.66c0.15-0.17,0.36-0.27,0.63-0.29v0.43     c-0.18,0.02-0.31,0.07-0.39,0.16c-0.08,0.08-0.12,0.21-0.12,0.37c0,0.19,0.07,0.33,0.21,0.43c0.14,0.1,0.34,0.15,0.61,0.15h0.22     c0.27,0,0.48-0.05,0.62-0.14c0.14-0.1,0.21-0.24,0.21-0.42c0-0.17-0.04-0.3-0.11-0.38c-0.08-0.09-0.2-0.14-0.38-0.16V26.92z"></path>			</g>			<g>				<path class="st2" d="M25.27,24.54c0.24,0,0.46,0.04,0.64,0.13c0.18,0.08,0.33,0.21,0.42,0.36c0.1,0.16,0.15,0.34,0.15,0.54     c0,0.2-0.05,0.38-0.15,0.54c-0.1,0.16-0.24,0.28-0.42,0.37c-0.18,0.09-0.39,0.13-0.63,0.13h-0.14c-0.24,0-0.46-0.04-0.64-0.13     c-0.19-0.09-0.33-0.21-0.43-0.36c-0.1-0.16-0.15-0.34-0.15-0.54c0-0.2,0.05-0.38,0.15-0.54c0.1-0.16,0.24-0.28,0.42-0.36     c0.18-0.09,0.4-0.13,0.64-0.13H25.27z M25.14,24.97c-0.28,0-0.49,0.05-0.64,0.16c-0.15,0.1-0.22,0.25-0.22,0.44     c0,0.19,0.07,0.33,0.22,0.44c0.15,0.11,0.35,0.16,0.62,0.16h0.14c0.27,0,0.49-0.05,0.64-0.16c0.15-0.11,0.22-0.25,0.22-0.44     c0-0.19-0.07-0.34-0.22-0.44c-0.15-0.1-0.36-0.15-0.64-0.15H25.14z"></path>			</g>			<g>				<path class="st2" d="M26.46,22.13v0.43l-1.77,1.11h1.77v0.43h-2.49v-0.43l1.78-1.11h-1.78v-0.43H26.46z"></path>			</g>			<g>				<path class="st2" d="M25.27,19.63c0.24,0,0.46,0.04,0.64,0.13c0.18,0.08,0.33,0.21,0.42,0.36c0.1,0.16,0.15,0.34,0.15,0.54     c0,0.2-0.05,0.38-0.15,0.54c-0.1,0.16-0.24,0.28-0.42,0.37c-0.18,0.09-0.39,0.13-0.63,0.13h-0.14c-0.24,0-0.46-0.04-0.64-0.13     c-0.19-0.09-0.33-0.21-0.43-0.37c-0.1-0.16-0.15-0.34-0.15-0.54c0-0.2,0.05-0.38,0.15-0.54c0.1-0.16,0.24-0.28,0.42-0.36     c0.18-0.09,0.4-0.13,0.64-0.13H25.27z M25.14,20.06c-0.28,0-0.49,0.05-0.64,0.16c-0.15,0.1-0.22,0.25-0.22,0.44     c0,0.19,0.07,0.33,0.22,0.44c0.15,0.11,0.35,0.16,0.62,0.16h0.14c0.27,0,0.49-0.05,0.64-0.16c0.15-0.11,0.22-0.25,0.22-0.44     c0-0.19-0.07-0.34-0.22-0.44c-0.15-0.1-0.36-0.16-0.64-0.16H25.14z"></path>			</g>			<g>				<path class="st2" d="M23.96,18.63l1.91-0.72l-1.91-0.72v-0.56h2.49v0.43h-0.82l-1.1-0.04l1.92,0.74v0.31l-1.92,0.73l1.1-0.04     h0.82v0.43h-2.49V18.63z"></path>			</g>			<g>				<path class="st2" d="M25.14,15.36l-1.18-0.57v-0.48l1.58,0.84h0.92v0.44h-0.92l-1.58,0.84v-0.48L25.14,15.36z"></path>			</g>		</g>		<g>			<g>				<path class="st3" d="M44.16,31.36c-0.1,0-0.17,0.03-0.23,0.1c-0.05,0.07-0.11,0.19-0.16,0.37c-0.05,0.18-0.11,0.32-0.18,0.43     c-0.13,0.2-0.3,0.31-0.5,0.31c-0.18,0-0.33-0.07-0.45-0.22c-0.12-0.15-0.18-0.34-0.18-0.57c0-0.16,0.03-0.29,0.09-0.42     c0.06-0.12,0.14-0.22,0.25-0.29c0.11-0.07,0.22-0.1,0.35-0.1v0.39c-0.12,0-0.21,0.04-0.27,0.11c-0.07,0.07-0.1,0.18-0.1,0.31     c0,0.13,0.03,0.23,0.08,0.3c0.05,0.07,0.13,0.11,0.23,0.11c0.08,0,0.15-0.04,0.21-0.11c0.06-0.08,0.11-0.2,0.16-0.38     c0.05-0.17,0.11-0.31,0.18-0.42c0.07-0.11,0.14-0.18,0.23-0.23c0.09-0.05,0.19-0.07,0.3-0.07c0.19,0,0.34,0.07,0.45,0.21     c0.11,0.14,0.17,0.34,0.17,0.58c0,0.16-0.03,0.31-0.09,0.45c-0.06,0.14-0.14,0.24-0.25,0.32c-0.11,0.08-0.23,0.11-0.37,0.11     v-0.39c0.13,0,0.23-0.04,0.3-0.13c0.07-0.08,0.1-0.2,0.1-0.36c0-0.14-0.03-0.24-0.08-0.31C44.33,31.39,44.25,31.36,44.16,31.36z     "></path>			</g>			<g>				<path class="st3" d="M43.68,28.84c0.22,0,0.41,0.04,0.58,0.11c0.17,0.08,0.29,0.18,0.38,0.33c0.09,0.14,0.13,0.3,0.13,0.49     c0,0.18-0.04,0.34-0.13,0.49c-0.09,0.14-0.22,0.25-0.38,0.33c-0.16,0.08-0.35,0.12-0.57,0.12h-0.13c-0.22,0-0.41-0.04-0.58-0.12     c-0.17-0.08-0.29-0.19-0.38-0.33c-0.09-0.14-0.13-0.3-0.13-0.49c0-0.18,0.04-0.34,0.13-0.49c0.09-0.14,0.21-0.25,0.38-0.33     c0.16-0.08,0.36-0.12,0.57-0.12H43.68z M43.56,29.23c-0.25,0-0.44,0.05-0.57,0.14c-0.13,0.09-0.2,0.23-0.2,0.4     c0,0.17,0.07,0.3,0.2,0.39c0.13,0.1,0.32,0.14,0.56,0.15h0.13c0.25,0,0.44-0.05,0.57-0.14c0.13-0.1,0.2-0.23,0.2-0.4     c0-0.17-0.07-0.3-0.2-0.4c-0.13-0.09-0.32-0.14-0.58-0.14H43.56z"></path>			</g>			<g>				<path class="st3" d="M44.01,26.74c0.24,0.02,0.43,0.11,0.56,0.26c0.13,0.15,0.2,0.36,0.2,0.61c0,0.18-0.04,0.34-0.13,0.47     c-0.08,0.14-0.2,0.24-0.36,0.31c-0.16,0.07-0.34,0.11-0.54,0.12h-0.21c-0.21,0-0.4-0.04-0.56-0.11     c-0.16-0.08-0.29-0.18-0.37-0.32c-0.09-0.14-0.13-0.3-0.13-0.49c0-0.25,0.07-0.45,0.2-0.6c0.13-0.15,0.32-0.24,0.57-0.26v0.39     c-0.16,0.02-0.28,0.07-0.35,0.14c-0.07,0.08-0.11,0.19-0.11,0.33c0,0.17,0.06,0.3,0.19,0.39c0.12,0.09,0.31,0.14,0.54,0.14h0.2     c0.24,0,0.43-0.04,0.55-0.13c0.13-0.09,0.19-0.21,0.19-0.38c0-0.15-0.03-0.27-0.1-0.34c-0.07-0.08-0.18-0.13-0.34-0.15V26.74z"></path>			</g>			<g>				<path class="st3" d="M44.74,25.99v0.39H42.5v-0.39H44.74z"></path>			</g>			<g>				<path class="st3" d="M43.74,24.2v0.92h0.69v-1.07h0.31v1.46H42.5v-1.45h0.31v1.06h0.62V24.2H43.74z"></path>			</g>			<g>				<path class="st3" d="M42.81,22.08v0.7h1.93v0.39h-1.93v0.69H42.5v-1.78H42.81z"></path>			</g>			<g>				<path class="st3" d="M43.56,21.03l-1.06-0.52v-0.43l1.41,0.75h0.82v0.39h-0.82l-1.41,0.75v-0.43L43.56,21.03z"></path>			</g>		</g>		<g>			<g>				<path class="st4" d="M7.09,31.55h0.83v0.39H5.69v-0.86c0-0.25,0.07-0.45,0.2-0.6c0.13-0.15,0.3-0.22,0.52-0.22     c0.22,0,0.39,0.07,0.51,0.22c0.12,0.14,0.18,0.35,0.18,0.61V31.55z M6.78,31.55v-0.47c0-0.14-0.03-0.24-0.1-0.32     c-0.06-0.07-0.16-0.11-0.28-0.11c-0.12,0-0.22,0.04-0.29,0.11C6.04,30.84,6,30.94,6,31.07v0.48H6.78z"></path>			</g>			<g>				<path class="st4" d="M6.93,28.62v0.92h0.69v-1.07h0.31v1.46H5.69v-1.45H6v1.06h0.62v-0.92H6.93z"></path>			</g>			<g>				<path class="st4" d="M6.86,26.36c0.22,0,0.41,0.04,0.58,0.11c0.17,0.08,0.29,0.18,0.38,0.33c0.09,0.14,0.13,0.3,0.13,0.49     c0,0.18-0.04,0.34-0.13,0.49c-0.09,0.14-0.22,0.25-0.38,0.33c-0.16,0.08-0.35,0.12-0.57,0.12H6.75c-0.22,0-0.41-0.04-0.58-0.12     C6,28.02,5.88,27.91,5.79,27.77c-0.09-0.14-0.13-0.3-0.13-0.49c0-0.18,0.04-0.34,0.13-0.49c0.09-0.14,0.21-0.25,0.38-0.33     c0.16-0.08,0.36-0.12,0.57-0.12H6.86z M6.75,26.75c-0.25,0-0.44,0.05-0.57,0.14c-0.13,0.09-0.2,0.23-0.2,0.4     c0,0.17,0.07,0.3,0.2,0.39c0.13,0.1,0.32,0.14,0.56,0.15h0.13c0.25,0,0.44-0.05,0.57-0.14c0.13-0.1,0.2-0.23,0.2-0.4     c0-0.17-0.07-0.3-0.2-0.4c-0.13-0.09-0.32-0.14-0.58-0.14H6.75z"></path>			</g>			<g>				<path class="st4" d="M7.09,25.58h0.83v0.39H5.69v-0.86c0-0.25,0.07-0.45,0.2-0.6c0.13-0.15,0.3-0.22,0.52-0.22     c0.22,0,0.39,0.07,0.51,0.22c0.12,0.14,0.18,0.35,0.18,0.6V25.58z M6.78,25.58v-0.47c0-0.14-0.03-0.24-0.1-0.32     c-0.06-0.07-0.16-0.11-0.28-0.11c-0.12,0-0.22,0.04-0.29,0.11C6.04,24.87,6,24.97,6,25.1v0.48H6.78z"></path>			</g>			<g>				<path class="st4" d="M7.61,23.57v-1.02h0.31v1.41H5.69v-0.39H7.61z"></path>			</g>			<g>				<path class="st4" d="M6.93,20.94v0.92h0.69v-1.07h0.31v1.46H5.69V20.8H6v1.06h0.62v-0.92H6.93z"></path>			</g>		</g>		<g>			<g>				<path class="st5" d="M10.59,48.6H8.22V45.5H5.43v3.11H3.05v-8.22h2.39v3.28h2.79v-3.28h2.37V48.6z"></path>			</g>			<g>				<path class="st5" d="M29.59,44.64c0,0.8-0.17,1.52-0.5,2.14c-0.33,0.62-0.8,1.1-1.4,1.44c-0.6,0.33-1.28,0.5-2.04,0.5     c-0.77,0-1.46-0.16-2.06-0.49c-0.6-0.33-1.07-0.81-1.4-1.43c-0.33-0.62-0.5-1.34-0.5-2.15v-0.29c0-0.8,0.16-1.52,0.49-2.14     c0.32-0.62,0.79-1.1,1.39-1.44c0.6-0.34,1.29-0.51,2.07-0.51c0.76,0,1.44,0.17,2.04,0.5c0.6,0.34,1.07,0.81,1.4,1.42     c0.33,0.61,0.5,1.31,0.51,2.09V44.64z M27.19,44.35c0-0.72-0.14-1.28-0.41-1.68c-0.27-0.39-0.65-0.59-1.14-0.59     c-1.03,0-1.55,0.77-1.55,2.31v0.25c0,0.71,0.13,1.26,0.39,1.67c0.26,0.4,0.65,0.61,1.18,0.61c0.47,0,0.84-0.2,1.11-0.59     c0.27-0.4,0.41-0.94,0.42-1.62V44.35z"></path>			</g>			<g>				<path class="st5" d="M43.08,46.03v2.58h-2.39v-8.22h3.58c0.69,0,1.3,0.12,1.84,0.37c0.53,0.25,0.94,0.6,1.24,1.04     c0.29,0.45,0.44,0.96,0.44,1.52c0,0.79-0.31,1.43-0.93,1.93c-0.62,0.5-1.45,0.76-2.47,0.78H43.08z M43.08,44.19h1.2     c0.39,0,0.67-0.08,0.86-0.25c0.19-0.16,0.28-0.37,0.28-0.61c0-0.32-0.1-0.59-0.3-0.8c-0.2-0.21-0.48-0.31-0.84-0.31h-1.2V44.19z     "></path>			</g>		</g>		<g>			<g>				<g>					<path class="st0" d="M11.71,37.23H1.87l0,0c0-0.96,0.78-1.73,1.73-1.73h6.38C10.94,35.5,11.71,36.27,11.71,37.23L11.71,37.23z"></path>				</g>				<g>					<path class="st0" d="M11.76,16.43c-0.02,0.08-0.05,0.16-0.08,0.23c-0.08,0.19-0.2,0.37-0.35,0.52      c-0.11,0.12-0.25,0.23-0.39,0.31c0,0-0.01,0.01-0.01,0.01c-0.24,0.14-0.51,0.22-0.8,0.23c-0.06,0-0.12,0-0.17-0.02l-1.02-0.22      c-1.41-0.3-2.86-0.3-4.27,0l-1.02,0.22c-0.01,0-0.02,0-0.03,0.01c-0.05,0.01-0.1,0.01-0.15,0.01      c-0.13-0.01-0.26-0.03-0.38-0.06c-0.02,0-0.03-0.01-0.04-0.01c-0.13-0.04-0.26-0.1-0.38-0.16c0,0-0.01,0-0.01-0.01      c-0.3-0.17-0.54-0.43-0.7-0.75c-0.05-0.1-0.09-0.2-0.12-0.3C5.14,14.8,8.39,14.81,11.76,16.43z"></path>				</g>			</g>			<g>				<g>					<path class="st0" d="M4.02,35L4.02,35c-0.32,0-0.57-0.26-0.57-0.57V18.69c0-0.32,0.26-0.57,0.57-0.57h0      c0.32,0,0.57,0.26,0.57,0.57v15.74C4.59,34.74,4.34,35,4.02,35z"></path>				</g>				<g>					<path class="st0" d="M9.56,35L9.56,35c-0.32,0-0.57-0.26-0.57-0.57V18.69c0-0.32,0.26-0.57,0.57-0.57h0      c0.32,0,0.57,0.26,0.57,0.57v15.74C10.14,34.74,9.88,35,9.56,35z"></path>				</g>			</g>		</g>		<g>			<g>				<g>					<path class="st0" d="M48.56,37.23h-9.84l0,0c0-0.96,0.78-1.73,1.73-1.73h6.38C47.79,35.5,48.56,36.27,48.56,37.23L48.56,37.23z      "></path>				</g>				<g>					<path class="st0" d="M48.6,16.43c-0.02,0.08-0.05,0.16-0.08,0.23c-0.08,0.19-0.2,0.37-0.35,0.52      c-0.11,0.12-0.25,0.23-0.39,0.31c0,0-0.01,0.01-0.01,0.01c-0.24,0.14-0.51,0.22-0.8,0.23c-0.06,0-0.12,0-0.17-0.02l-1.02-0.22      c-1.41-0.3-2.86-0.3-4.27,0l-1.02,0.22c-0.01,0-0.02,0-0.03,0.01c-0.05,0.01-0.1,0.01-0.15,0.01      c-0.13-0.01-0.26-0.03-0.38-0.06c-0.02,0-0.03-0.01-0.04-0.01c-0.13-0.04-0.26-0.1-0.38-0.16c0,0-0.01,0-0.01-0.01      c-0.3-0.17-0.54-0.43-0.7-0.75c-0.05-0.1-0.09-0.2-0.12-0.3C41.98,14.8,45.23,14.81,48.6,16.43z"></path>				</g>			</g>			<g>				<g>					<path class="st0" d="M40.87,35L40.87,35c-0.32,0-0.57-0.26-0.57-0.57V18.69c0-0.32,0.26-0.57,0.57-0.57l0,0      c0.32,0,0.57,0.26,0.57,0.57v15.74C41.44,34.74,41.18,35,40.87,35z"></path>				</g>				<g>					<path class="st0" d="M46.41,35L46.41,35c-0.32,0-0.57-0.26-0.57-0.57V18.69c0-0.32,0.26-0.57,0.57-0.57l0,0      c0.32,0,0.57,0.26,0.57,0.57v15.74C46.99,34.74,46.73,35,46.41,35z"></path>				</g>			</g>		</g>		<g>			<g>				<g>					<path class="st0" d="M31.81,37.23H18.62v0c0-1.28,1.04-2.32,2.32-2.32h8.54C30.77,34.91,31.81,35.95,31.81,37.23L31.81,37.23z"></path>				</g>				<g>					<path class="st0" d="M31.87,9.36c-0.03,0.11-0.07,0.21-0.11,0.31c-0.11,0.26-0.27,0.49-0.46,0.69      c-0.15,0.16-0.33,0.3-0.53,0.41c-0.01,0-0.01,0.01-0.02,0.01c-0.32,0.18-0.68,0.29-1.07,0.31c-0.08,0-0.16-0.01-0.23-0.02      l-1.36-0.29c-1.89-0.4-3.84-0.4-5.72,0l-1.36,0.29c-0.01,0-0.02,0-0.04,0.01c-0.07,0.01-0.13,0.02-0.2,0.01      c-0.18-0.01-0.35-0.04-0.51-0.08c-0.02,0-0.04-0.01-0.06-0.02c-0.18-0.05-0.35-0.13-0.51-0.22c0,0-0.01,0-0.01-0.01      c-0.4-0.23-0.73-0.58-0.94-1c-0.07-0.13-0.12-0.26-0.16-0.4C23,7.18,27.35,7.19,31.87,9.36z"></path>				</g>			</g>			<g>				<g>					<path class="st0" d="M21.5,34.24L21.5,34.24c-0.42,0-0.77-0.34-0.77-0.77V12.39c0-0.42,0.34-0.77,0.77-0.77h0      c0.42,0,0.77,0.34,0.77,0.77v21.08C22.27,33.9,21.93,34.24,21.5,34.24z"></path>				</g>				<g>					<path class="st0" d="M28.93,34.24L28.93,34.24c-0.42,0-0.77-0.34-0.77-0.77V12.39c0-0.42,0.34-0.77,0.77-0.77h0      c0.42,0,0.77,0.34,0.77,0.77v21.08C29.7,33.9,29.35,34.24,28.93,34.24z"></path>				</g>			</g>		</g>		<g>			<path class="st0" d="M21.66,0.87L2.12,11.02c-1.24,0.64-2.02,1.92-2.02,3.32v0.87L21.94,4.98c2.07-0.97,4.47-0.97,6.54,0    l21.84,10.23v-0.87c0-1.4-0.78-2.67-2.02-3.32L28.77,0.87C26.54-0.29,23.89-0.29,21.66,0.87z"></path>		</g>	</g></g></svg>